<mxfile host="app.diagrams.net" modified="2022-04-12T13:24:15.988Z" agent="5.0 (Windows NT 10.0; Win64; x64) AppleWebKit/537.36 (KHTML, like Gecko) Chrome/100.0.4896.75 Safari/537.36" etag="kwN4HkYzuNwKVR8RDwWc" version="17.4.3" type="github">
  <diagram id="DorEvNYtjFXwximQwg8O" name="Page-1">
    <mxGraphModel dx="868" dy="482" grid="1" gridSize="10" guides="1" tooltips="1" connect="1" arrows="1" fold="1" page="1" pageScale="1" pageWidth="827" pageHeight="1169" math="0" shadow="0">
      <root>
        <mxCell id="0" />
        <mxCell id="1" parent="0" />
        <mxCell id="a8nD-PQswxmdD_FAOt-W-7" value="Pessoa" style="shape=umlActor;verticalLabelPosition=bottom;verticalAlign=top;html=1;outlineConnect=0;" vertex="1" parent="1">
          <mxGeometry x="399" y="90" width="30" height="60" as="geometry" />
        </mxCell>
        <mxCell id="a8nD-PQswxmdD_FAOt-W-11" style="edgeStyle=orthogonalEdgeStyle;rounded=0;orthogonalLoop=1;jettySize=auto;html=1;endArrow=block;endFill=0;" edge="1" parent="1" source="a8nD-PQswxmdD_FAOt-W-8" target="a8nD-PQswxmdD_FAOt-W-7">
          <mxGeometry relative="1" as="geometry" />
        </mxCell>
        <mxCell id="a8nD-PQswxmdD_FAOt-W-8" value="Professor" style="shape=umlActor;verticalLabelPosition=bottom;verticalAlign=top;html=1;outlineConnect=0;" vertex="1" parent="1">
          <mxGeometry x="399" y="270" width="30" height="60" as="geometry" />
        </mxCell>
        <mxCell id="a8nD-PQswxmdD_FAOt-W-12" style="edgeStyle=orthogonalEdgeStyle;rounded=0;orthogonalLoop=1;jettySize=auto;html=1;entryX=1;entryY=0.3333333333333333;entryDx=0;entryDy=0;entryPerimeter=0;endArrow=block;endFill=0;" edge="1" parent="1" source="a8nD-PQswxmdD_FAOt-W-9" target="a8nD-PQswxmdD_FAOt-W-7">
          <mxGeometry relative="1" as="geometry" />
        </mxCell>
        <mxCell id="a8nD-PQswxmdD_FAOt-W-9" value="Assistente" style="shape=umlActor;verticalLabelPosition=bottom;verticalAlign=top;html=1;outlineConnect=0;" vertex="1" parent="1">
          <mxGeometry x="510" y="230" width="30" height="60" as="geometry" />
        </mxCell>
        <mxCell id="a8nD-PQswxmdD_FAOt-W-13" style="edgeStyle=orthogonalEdgeStyle;rounded=0;orthogonalLoop=1;jettySize=auto;html=1;entryX=0;entryY=0.3333333333333333;entryDx=0;entryDy=0;entryPerimeter=0;endArrow=block;endFill=0;" edge="1" parent="1" source="a8nD-PQswxmdD_FAOt-W-10" target="a8nD-PQswxmdD_FAOt-W-7">
          <mxGeometry relative="1" as="geometry" />
        </mxCell>
        <mxCell id="a8nD-PQswxmdD_FAOt-W-10" value="Aluno" style="shape=umlActor;verticalLabelPosition=bottom;verticalAlign=top;html=1;outlineConnect=0;" vertex="1" parent="1">
          <mxGeometry x="290" y="230" width="30" height="60" as="geometry" />
        </mxCell>
        <mxCell id="a8nD-PQswxmdD_FAOt-W-14" value="EFETUAR LOGIN" style="ellipse;whiteSpace=wrap;html=1;" vertex="1" parent="1">
          <mxGeometry x="520" y="10" width="120" height="80" as="geometry" />
        </mxCell>
        <mxCell id="a8nD-PQswxmdD_FAOt-W-16" value="" style="endArrow=none;html=1;rounded=0;entryX=0;entryY=0.5;entryDx=0;entryDy=0;exitX=0.5;exitY=0;exitDx=0;exitDy=0;exitPerimeter=0;" edge="1" parent="1" source="a8nD-PQswxmdD_FAOt-W-7" target="a8nD-PQswxmdD_FAOt-W-14">
          <mxGeometry width="50" height="50" relative="1" as="geometry">
            <mxPoint x="390" y="190" as="sourcePoint" />
            <mxPoint x="440" y="140" as="targetPoint" />
          </mxGeometry>
        </mxCell>
        <mxCell id="a8nD-PQswxmdD_FAOt-W-17" value="Matricular Aluno" style="ellipse;whiteSpace=wrap;html=1;" vertex="1" parent="1">
          <mxGeometry x="600" y="190" width="120" height="80" as="geometry" />
        </mxCell>
        <mxCell id="a8nD-PQswxmdD_FAOt-W-18" value="" style="endArrow=none;html=1;rounded=0;entryX=0;entryY=0.5;entryDx=0;entryDy=0;exitX=0.5;exitY=0;exitDx=0;exitDy=0;exitPerimeter=0;" edge="1" parent="1" source="a8nD-PQswxmdD_FAOt-W-9" target="a8nD-PQswxmdD_FAOt-W-17">
          <mxGeometry width="50" height="50" relative="1" as="geometry">
            <mxPoint x="390" y="290" as="sourcePoint" />
            <mxPoint x="440" y="240" as="targetPoint" />
          </mxGeometry>
        </mxCell>
        <mxCell id="a8nD-PQswxmdD_FAOt-W-29" style="edgeStyle=orthogonalEdgeStyle;rounded=0;orthogonalLoop=1;jettySize=auto;html=1;exitX=0.5;exitY=0;exitDx=0;exitDy=0;entryX=0.258;entryY=1;entryDx=0;entryDy=0;entryPerimeter=0;endArrow=block;endFill=0;" edge="1" parent="1" source="a8nD-PQswxmdD_FAOt-W-19" target="a8nD-PQswxmdD_FAOt-W-17">
          <mxGeometry relative="1" as="geometry" />
        </mxCell>
        <mxCell id="a8nD-PQswxmdD_FAOt-W-19" value="Matricular Tecnico" style="ellipse;whiteSpace=wrap;html=1;" vertex="1" parent="1">
          <mxGeometry x="540" y="360" width="120" height="80" as="geometry" />
        </mxCell>
        <mxCell id="a8nD-PQswxmdD_FAOt-W-30" style="edgeStyle=orthogonalEdgeStyle;rounded=0;orthogonalLoop=1;jettySize=auto;html=1;exitX=0.5;exitY=0;exitDx=0;exitDy=0;entryX=0.75;entryY=1;entryDx=0;entryDy=0;entryPerimeter=0;endArrow=block;endFill=0;" edge="1" parent="1" source="a8nD-PQswxmdD_FAOt-W-20" target="a8nD-PQswxmdD_FAOt-W-17">
          <mxGeometry relative="1" as="geometry" />
        </mxCell>
        <mxCell id="a8nD-PQswxmdD_FAOt-W-20" value="Matricular graduação" style="ellipse;whiteSpace=wrap;html=1;" vertex="1" parent="1">
          <mxGeometry x="660" y="360" width="120" height="80" as="geometry" />
        </mxCell>
        <mxCell id="a8nD-PQswxmdD_FAOt-W-24" value="Lançar notas" style="ellipse;whiteSpace=wrap;html=1;" vertex="1" parent="1">
          <mxGeometry x="414" y="400" width="120" height="80" as="geometry" />
        </mxCell>
        <mxCell id="a8nD-PQswxmdD_FAOt-W-25" value="Consultar boletim" style="ellipse;whiteSpace=wrap;html=1;" vertex="1" parent="1">
          <mxGeometry x="290" y="400" width="120" height="80" as="geometry" />
        </mxCell>
        <mxCell id="a8nD-PQswxmdD_FAOt-W-26" value="" style="endArrow=none;html=1;rounded=0;exitX=0.5;exitY=0;exitDx=0;exitDy=0;" edge="1" parent="1" source="a8nD-PQswxmdD_FAOt-W-25">
          <mxGeometry width="50" height="50" relative="1" as="geometry">
            <mxPoint x="390" y="420" as="sourcePoint" />
            <mxPoint x="400" y="310" as="targetPoint" />
          </mxGeometry>
        </mxCell>
        <mxCell id="a8nD-PQswxmdD_FAOt-W-27" value="" style="endArrow=none;html=1;rounded=0;exitX=0.5;exitY=0;exitDx=0;exitDy=0;" edge="1" parent="1" source="a8nD-PQswxmdD_FAOt-W-24">
          <mxGeometry width="50" height="50" relative="1" as="geometry">
            <mxPoint x="390" y="420" as="sourcePoint" />
            <mxPoint x="430" y="310" as="targetPoint" />
          </mxGeometry>
        </mxCell>
        <mxCell id="a8nD-PQswxmdD_FAOt-W-28" value="" style="endArrow=none;html=1;rounded=0;" edge="1" parent="1" source="a8nD-PQswxmdD_FAOt-W-25">
          <mxGeometry width="50" height="50" relative="1" as="geometry">
            <mxPoint x="390" y="420" as="sourcePoint" />
            <mxPoint x="305" y="290" as="targetPoint" />
          </mxGeometry>
        </mxCell>
        <mxCell id="a8nD-PQswxmdD_FAOt-W-31" value="Gerar Log de acesso a notas" style="ellipse;whiteSpace=wrap;html=1;" vertex="1" parent="1">
          <mxGeometry x="354" y="540" width="120" height="80" as="geometry" />
        </mxCell>
        <mxCell id="a8nD-PQswxmdD_FAOt-W-45" value="" style="edgeStyle=orthogonalEdgeStyle;rounded=0;sketch=0;orthogonalLoop=1;jettySize=auto;html=1;shadow=0;dashed=1;endArrow=classic;endFill=1;" edge="1" parent="1" source="a8nD-PQswxmdD_FAOt-W-38" target="a8nD-PQswxmdD_FAOt-W-14">
          <mxGeometry relative="1" as="geometry" />
        </mxCell>
        <mxCell id="a8nD-PQswxmdD_FAOt-W-38" value="Alterar senha" style="ellipse;whiteSpace=wrap;html=1;" vertex="1" parent="1">
          <mxGeometry x="780" y="10" width="120" height="80" as="geometry" />
        </mxCell>
        <mxCell id="a8nD-PQswxmdD_FAOt-W-41" value="" style="endArrow=classic;dashed=1;html=1;strokeWidth=2;rounded=0;endFill=1;exitX=0.042;exitY=0.713;exitDx=0;exitDy=0;exitPerimeter=0;entryX=0.683;entryY=-0.025;entryDx=0;entryDy=0;entryPerimeter=0;" edge="1" parent="1" source="a8nD-PQswxmdD_FAOt-W-17" target="a8nD-PQswxmdD_FAOt-W-24">
          <mxGeometry width="50" height="50" relative="1" as="geometry">
            <mxPoint x="490" y="400" as="sourcePoint" />
            <mxPoint x="560" y="330" as="targetPoint" />
          </mxGeometry>
        </mxCell>
        <mxCell id="a8nD-PQswxmdD_FAOt-W-43" value="" style="endArrow=none;html=1;rounded=0;shadow=0;dashed=1;sketch=0;exitX=1;exitY=0.5;exitDx=0;exitDy=0;entryX=0.025;entryY=0.5;entryDx=0;entryDy=0;entryPerimeter=0;endFill=0;" edge="1" parent="1" source="a8nD-PQswxmdD_FAOt-W-14" target="a8nD-PQswxmdD_FAOt-W-38">
          <mxGeometry relative="1" as="geometry">
            <mxPoint x="660" y="70" as="sourcePoint" />
            <mxPoint x="700" y="50" as="targetPoint" />
          </mxGeometry>
        </mxCell>
        <mxCell id="a8nD-PQswxmdD_FAOt-W-44" value="&amp;lt;&amp;lt;extended&amp;gt;&amp;gt;" style="edgeLabel;resizable=0;html=1;align=center;verticalAlign=middle;" connectable="0" vertex="1" parent="a8nD-PQswxmdD_FAOt-W-43">
          <mxGeometry relative="1" as="geometry">
            <mxPoint x="-2" as="offset" />
          </mxGeometry>
        </mxCell>
        <mxCell id="a8nD-PQswxmdD_FAOt-W-46" value="&amp;lt;&amp;lt;extended&amp;gt;&amp;gt;" style="edgeLabel;resizable=0;html=1;align=center;verticalAlign=middle;rotation=-55;" connectable="0" vertex="1" parent="1">
          <mxGeometry x="560" y="310" as="geometry" />
        </mxCell>
        <mxCell id="a8nD-PQswxmdD_FAOt-W-49" value="" style="endArrow=classic;html=1;rounded=0;shadow=0;dashed=1;sketch=0;exitX=0.467;exitY=1;exitDx=0;exitDy=0;exitPerimeter=0;entryX=0.575;entryY=0;entryDx=0;entryDy=0;entryPerimeter=0;" edge="1" parent="1" source="a8nD-PQswxmdD_FAOt-W-24" target="a8nD-PQswxmdD_FAOt-W-31">
          <mxGeometry width="50" height="50" relative="1" as="geometry">
            <mxPoint x="440" y="530" as="sourcePoint" />
            <mxPoint x="550" y="540" as="targetPoint" />
          </mxGeometry>
        </mxCell>
        <mxCell id="a8nD-PQswxmdD_FAOt-W-52" value="" style="endArrow=classic;html=1;rounded=0;shadow=0;dashed=1;sketch=0;exitX=0.5;exitY=1;exitDx=0;exitDy=0;" edge="1" parent="1" source="a8nD-PQswxmdD_FAOt-W-25">
          <mxGeometry width="50" height="50" relative="1" as="geometry">
            <mxPoint x="330" y="530" as="sourcePoint" />
            <mxPoint x="400" y="540" as="targetPoint" />
          </mxGeometry>
        </mxCell>
        <mxCell id="a8nD-PQswxmdD_FAOt-W-53" value="&amp;lt;&amp;lt;extended&amp;gt;&amp;gt;" style="edgeLabel;resizable=0;html=1;align=center;verticalAlign=middle;rotation=5;" connectable="0" vertex="1" parent="1">
          <mxGeometry x="680" y="510" as="geometry">
            <mxPoint x="-221.0266021589277" y="15.596189857753686" as="offset" />
          </mxGeometry>
        </mxCell>
        <mxCell id="a8nD-PQswxmdD_FAOt-W-54" value="&amp;lt;&amp;lt;extended&amp;gt;&amp;gt;" style="edgeLabel;resizable=0;html=1;align=center;verticalAlign=middle;rotation=-5;" connectable="0" vertex="1" parent="1">
          <mxGeometry x="590" y="480" as="geometry">
            <mxPoint x="-221.0266021589277" y="15.596189857753686" as="offset" />
          </mxGeometry>
        </mxCell>
      </root>
    </mxGraphModel>
  </diagram>
</mxfile>
